<svg xmlns="http://www.w3.org/2000/svg" viewBox="0 0 122.88 91.94"><defs><style>.cls-1{fill:#790c55;}.cls-2{fill:#00aeef;}.cls-3{fill:#1a0b0c;}.cls-4{fill:#d5ece5;}</style></defs><g id="Layer_2" data-name="Layer 2"><g id="Layer_2-2" data-name="Layer 2"><polyline class="cls-1" points="42.77 16.13 112.67 91.94 66.06 12.85"/></g><g id="Layer_1-2" data-name="Layer 1"><path class="cls-2" d="M122.88,4.84,69.66,0,42.77,16.13Z"/><path class="cls-2" d="M92.87,67.46c-2.68,3.75-7.91,5.21-12.24,6-12.35,2.27-37.08,2.59-41.14-12.41L0,64.88,112.67,91.94c-8-13.62-14.44-24.72-19.72-33.77C94.55,61.1,95.05,64.4,92.87,67.46Z"/><path class="cls-2" d="M90.79,55.07a19.79,19.79,0,0,1,1.68,2.29L69.66,18.28V40.06C77.49,43.93,85,48.34,90.79,55.07Z"/></g><g id="Layer_3" data-name="Layer 3"><polygon class="cls-3" points="68.73 21.29 69.66 18.28 66.06 12.85 42.77 16.13 68.73 21.29"/><polyline class="cls-4" points="0 64.88 45.22 69.18 39.49 61.06 0 64.88"/></g></g></svg>